<?xml version="1.0" encoding="UTF-8"?>
<!--Generator: Apple Native CoreSVG 149-->
<!DOCTYPE svg
PUBLIC "-//W3C//DTD SVG 1.1//EN"
       "http://www.w3.org/Graphics/SVG/1.1/DTD/svg11.dtd">
<svg version="1.1" xmlns="http://www.w3.org/2000/svg" xmlns:xlink="http://www.w3.org/1999/xlink" width="3300" height="2200">
 <!--glyph: "uni100985.medium", point size: 100.000000, font version: "Version 16.0d12e3", template writer version: "8"-->
 <g id="Notes">
  <rect height="2200" id="artboard" style="fill:white;opacity:1" width="3300" x="0" y="0"/>
  <line id="" style="fill:none;stroke:black;opacity:1;stroke-width:0.5;" x1="263" x2="3036" y1="292" y2="292"/>
  <text style="stroke:none;fill:black;font-family:-apple-system,&quot;SF Pro Display&quot;,&quot;SF Pro Text&quot;,Helvetica,sans-serif;font-weight:bold;" transform="matrix(1 0 0 1 263 322)">Weight/Scale Variations</text>
  <text style="stroke:none;fill:black;font-family:-apple-system,&quot;SF Pro Display&quot;,&quot;SF Pro Text&quot;,Helvetica,sans-serif;text-anchor:middle;" transform="matrix(1 0 0 1 559.711 322)">Ultralight</text>
  <text style="stroke:none;fill:black;font-family:-apple-system,&quot;SF Pro Display&quot;,&quot;SF Pro Text&quot;,Helvetica,sans-serif;text-anchor:middle;" transform="matrix(1 0 0 1 856.422 322)">Thin</text>
  <text style="stroke:none;fill:black;font-family:-apple-system,&quot;SF Pro Display&quot;,&quot;SF Pro Text&quot;,Helvetica,sans-serif;text-anchor:middle;" transform="matrix(1 0 0 1 1153.13 322)">Light</text>
  <text style="stroke:none;fill:black;font-family:-apple-system,&quot;SF Pro Display&quot;,&quot;SF Pro Text&quot;,Helvetica,sans-serif;text-anchor:middle;" transform="matrix(1 0 0 1 1449.84 322)">Regular</text>
  <text style="stroke:none;fill:black;font-family:-apple-system,&quot;SF Pro Display&quot;,&quot;SF Pro Text&quot;,Helvetica,sans-serif;text-anchor:middle;" transform="matrix(1 0 0 1 1746.56 322)">Medium</text>
  <text style="stroke:none;fill:black;font-family:-apple-system,&quot;SF Pro Display&quot;,&quot;SF Pro Text&quot;,Helvetica,sans-serif;text-anchor:middle;" transform="matrix(1 0 0 1 2043.27 322)">Semibold</text>
  <text style="stroke:none;fill:black;font-family:-apple-system,&quot;SF Pro Display&quot;,&quot;SF Pro Text&quot;,Helvetica,sans-serif;text-anchor:middle;" transform="matrix(1 0 0 1 2339.98 322)">Bold</text>
  <text style="stroke:none;fill:black;font-family:-apple-system,&quot;SF Pro Display&quot;,&quot;SF Pro Text&quot;,Helvetica,sans-serif;text-anchor:middle;" transform="matrix(1 0 0 1 2636.69 322)">Heavy</text>
  <text style="stroke:none;fill:black;font-family:-apple-system,&quot;SF Pro Display&quot;,&quot;SF Pro Text&quot;,Helvetica,sans-serif;text-anchor:middle;" transform="matrix(1 0 0 1 2933.4 322)">Black</text>
  <line id="" style="fill:none;stroke:black;opacity:1;stroke-width:0.5;" x1="263" x2="3036" y1="1903" y2="1903"/>
  <g id="" transform="matrix(1 0 0 1 263 1933)">
   <path d="M9.24805 0.830078C13.5547 0.830078 17.1387-2.74414 17.1387-7.05078C17.1387-11.3574 13.5449-14.9316 9.23828-14.9316C4.94141-14.9316 1.36719-11.3574 1.36719-7.05078C1.36719-2.74414 4.95117 0.830078 9.24805 0.830078ZM9.24805-0.654297C5.70312-0.654297 2.87109-3.49609 2.87109-7.05078C2.87109-10.6055 5.69336-13.4473 9.23828-13.4473C12.793-13.4473 15.6348-10.6055 15.6445-7.05078C15.6543-3.49609 12.8027-0.654297 9.24805-0.654297ZM9.22852-3.62305C9.69727-3.62305 9.9707-3.93555 9.9707-4.45312L9.9707-6.31836L12.002-6.31836C12.5-6.31836 12.832-6.57227 12.832-7.04102C12.832-7.51953 12.5195-7.7832 12.002-7.7832L9.9707-7.7832L9.9707-9.81445C9.9707-10.332 9.69727-10.6543 9.22852-10.6543C8.75977-10.6543 8.50586-10.3125 8.50586-9.81445L8.50586-7.7832L6.49414-7.7832C5.97656-7.7832 5.64453-7.51953 5.64453-7.04102C5.64453-6.57227 5.99609-6.31836 6.49414-6.31836L8.50586-6.31836L8.50586-4.45312C8.50586-3.95508 8.75977-3.62305 9.22852-3.62305Z"/>
  </g>
  <g id="" transform="matrix(1 0 0 1 281.506 1933)">
   <path d="M11.709 2.91016C17.1582 2.91016 21.6699-1.61133 21.6699-7.05078C21.6699-12.5 17.1484-17.0117 11.6992-17.0117C6.25977-17.0117 1.74805-12.5 1.74805-7.05078C1.74805-1.61133 6.26953 2.91016 11.709 2.91016ZM11.709 1.25C7.09961 1.25 3.41797-2.44141 3.41797-7.05078C3.41797-11.6602 7.08984-15.3516 11.6992-15.3516C16.3086-15.3516 20-11.6602 20.0098-7.05078C20.0195-2.44141 16.3184 1.25 11.709 1.25ZM11.6797-2.66602C12.207-2.66602 12.5098-3.01758 12.5098-3.59375L12.5098-6.23047L15.3223-6.23047C15.8691-6.23047 16.25-6.51367 16.25-7.03125C16.25-7.55859 15.8887-7.86133 15.3223-7.86133L12.5098-7.86133L12.5098-10.6836C12.5098-11.25 12.207-11.6113 11.6797-11.6113C11.1621-11.6113 10.8789-11.2305 10.8789-10.6836L10.8789-7.86133L8.07617-7.86133C7.50977-7.86133 7.13867-7.55859 7.13867-7.03125C7.13867-6.51367 7.5293-6.23047 8.07617-6.23047L10.8789-6.23047L10.8789-3.59375C10.8789-3.03711 11.1621-2.66602 11.6797-2.66602Z"/>
  </g>
  <g id="" transform="matrix(1 0 0 1 304.924 1933)">
   <path d="M14.9707 5.66406C21.9336 5.66406 27.6953-0.0976562 27.6953-7.05078C27.6953-14.0137 21.9238-19.7754 14.9609-19.7754C8.00781-19.7754 2.25586-14.0137 2.25586-7.05078C2.25586-0.0976562 8.01758 5.66406 14.9707 5.66406ZM14.9707 3.84766C8.93555 3.84766 4.08203-1.01562 4.08203-7.05078C4.08203-13.0957 8.92578-17.9492 14.9609-17.9492C21.0059-17.9492 25.8594-13.0957 25.8691-7.05078C25.8789-1.01562 21.0156 3.84766 14.9707 3.84766ZM14.9414-1.38672C15.5176-1.38672 15.8594-1.77734 15.8594-2.38281L15.8594-6.13281L19.7754-6.13281C20.3711-6.13281 20.7812-6.46484 20.7812-7.02148C20.7812-7.59766 20.3906-7.93945 19.7754-7.93945L15.8594-7.93945L15.8594-11.8652C15.8594-12.4805 15.5176-12.8711 14.9414-12.8711C14.375-12.8711 14.0527-12.4609 14.0527-11.8652L14.0527-7.93945L10.1465-7.93945C9.53125-7.93945 9.13086-7.59766 9.13086-7.02148C9.13086-6.46484 9.55078-6.13281 10.1465-6.13281L14.0527-6.13281L14.0527-2.38281C14.0527-1.79688 14.375-1.38672 14.9414-1.38672Z"/>
  </g>
  <text style="stroke:none;fill:black;font-family:-apple-system,&quot;SF Pro Display&quot;,&quot;SF Pro Text&quot;,Helvetica,sans-serif;font-weight:bold;" transform="matrix(1 0 0 1 263 1953)">Design Variations</text>
  <text style="stroke:none;fill:black;font-family:-apple-system,&quot;SF Pro Display&quot;,&quot;SF Pro Text&quot;,Helvetica,sans-serif;" transform="matrix(1 0 0 1 263 1971)">Symbols are supported in up to nine weights and three scales.</text>
  <text style="stroke:none;fill:black;font-family:-apple-system,&quot;SF Pro Display&quot;,&quot;SF Pro Text&quot;,Helvetica,sans-serif;" transform="matrix(1 0 0 1 263 1989)">For optimal layout with text and other symbols, vertically align</text>
  <text style="stroke:none;fill:black;font-family:-apple-system,&quot;SF Pro Display&quot;,&quot;SF Pro Text&quot;,Helvetica,sans-serif;" transform="matrix(1 0 0 1 263 2007)">symbols with the adjacent text.</text>
  <line id="" style="fill:none;stroke:#00AEEF;stroke-width:0.5;opacity:1.0;" x1="776" x2="776" y1="1919" y2="1933"/>
  <g id="" transform="matrix(1 0 0 1 776 1933)">
   <path d="M3.31055 0.126953C3.82812 0.126953 4.08203-0.0683594 4.26758-0.605469L5.52734-4.0625L11.2891-4.0625L12.5488-0.605469C12.7344-0.0683594 12.9883 0.126953 13.4961 0.126953C14.0137 0.126953 14.3457-0.185547 14.3457-0.673828C14.3457-0.839844 14.3164-0.986328 14.2383-1.20117L9.6582-13.3887C9.43359-13.9941 9.0332-14.2871 8.4082-14.2871C7.80273-14.2871 7.39258-13.9941 7.17773-13.3984L2.59766-1.19141C2.51953-0.976562 2.49023-0.830078 2.49023-0.664062C2.49023-0.175781 2.80273 0.126953 3.31055 0.126953ZM6.00586-5.53711L8.37891-12.1094L8.42773-12.1094L10.8008-5.53711Z"/>
  </g>
  <line id="" style="fill:none;stroke:#00AEEF;stroke-width:0.5;opacity:1.0;" x1="792.836" x2="792.836" y1="1919" y2="1933"/>
  <text style="stroke:none;fill:black;font-family:-apple-system,&quot;SF Pro Display&quot;,&quot;SF Pro Text&quot;,Helvetica,sans-serif;font-weight:bold;" transform="matrix(1 0 0 1 776 1953)">Margins</text>
  <text style="stroke:none;fill:black;font-family:-apple-system,&quot;SF Pro Display&quot;,&quot;SF Pro Text&quot;,Helvetica,sans-serif;" transform="matrix(1 0 0 1 776 1971)">Leading and trailing margins on the left and right side of each symbol</text>
  <text style="stroke:none;fill:black;font-family:-apple-system,&quot;SF Pro Display&quot;,&quot;SF Pro Text&quot;,Helvetica,sans-serif;" transform="matrix(1 0 0 1 776 1989)">can be adjusted by modifying the x-location of the margin guidelines.</text>
  <text style="stroke:none;fill:black;font-family:-apple-system,&quot;SF Pro Display&quot;,&quot;SF Pro Text&quot;,Helvetica,sans-serif;" transform="matrix(1 0 0 1 776 2007)">Modifications are automatically applied proportionally to all</text>
  <text style="stroke:none;fill:black;font-family:-apple-system,&quot;SF Pro Display&quot;,&quot;SF Pro Text&quot;,Helvetica,sans-serif;" transform="matrix(1 0 0 1 776 2025)">scales and weights.</text>
  <g id="" transform="matrix(1 0 0 1 1289 1933)">
   <path d="M2.8418 1.86523L4.54102 3.57422C5.40039 4.44336 6.38672 4.38477 7.31445 3.35938L17.4902-7.85156C17.7539-7.76367 18.0273-7.7832 18.3398-7.8418L19.4043-8.03711L20.0684-7.36328L20.0293-6.80664C19.9902-6.30859 20.1172-5.92773 20.6055-5.44922L21.3672-4.70703C21.8457-4.22852 22.4609-4.19922 22.9297-4.66797L25.8398-7.58789C26.3086-8.05664 26.2891-8.65234 25.8105-9.13086L25.0391-9.89258C24.5605-10.3711 24.1895-10.5273 23.7109-10.4883L23.1348-10.4395L22.4902-11.0742L22.7344-12.1973C22.8613-12.7637 22.7051-13.2031 22.1191-13.7891L19.9219-15.9766C16.582-19.2969 12.1484-19.2188 9.25781-16.3281C8.83789-15.918 8.80859-15.3418 9.04297-14.9512C9.27734-14.5898 9.73633-14.3555 10.3809-14.5215C11.8457-14.8633 13.3691-14.9219 14.7949-13.9844L14.209-12.5293C14.0137-12.0508 13.9844-11.6504 14.1113-11.2891L3.04688-0.898438C2.06055 0.0195312 1.98242 0.996094 2.8418 1.86523ZM10.752-15.957C13.1836-17.7344 16.4746-17.4316 18.7012-15.2051L21.1328-12.793C21.3672-12.5586 21.4062-12.373 21.3379-12.0312L21.0156-10.5469L22.5195-9.0625L23.5059-9.12109C23.7598-9.13086 23.8379-9.11133 24.0332-8.91602L24.6094-8.33984L22.168-5.89844L21.5918-6.47461C21.3965-6.66992 21.3672-6.74805 21.377-7.01172L21.4453-7.98828L19.9512-9.47266L18.4277-9.21875C18.1055-9.15039 17.959-9.17969 17.7148-9.41406L15.7129-11.416C15.459-11.6504 15.4297-11.8164 15.5859-12.1875L16.4648-14.2773C14.9023-15.7324 12.8711-16.3574 10.8398-15.7617C10.6836-15.7227 10.625-15.8496 10.752-15.957ZM5.27344 2.30469L4.10156 1.14258C3.63281 0.683594 3.74023 0.341797 4.14062-0.0195312L14.9512-10.1953L16.416-8.71094L6.42578 2.27539C6.07422 2.67578 5.74219 2.77344 5.27344 2.30469Z"/>
  </g>
  <text style="stroke:none;fill:black;font-family:-apple-system,&quot;SF Pro Display&quot;,&quot;SF Pro Text&quot;,Helvetica,sans-serif;font-weight:bold;" transform="matrix(1 0 0 1 1289 1953)">Exporting</text>
  <text style="stroke:none;fill:black;font-family:-apple-system,&quot;SF Pro Display&quot;,&quot;SF Pro Text&quot;,Helvetica,sans-serif;" transform="matrix(1 0 0 1 1289 1971)">Symbols should be outlined when exporting to ensure the</text>
  <text style="stroke:none;fill:black;font-family:-apple-system,&quot;SF Pro Display&quot;,&quot;SF Pro Text&quot;,Helvetica,sans-serif;" transform="matrix(1 0 0 1 1289 1989)">design is preserved when submitting to Xcode.</text>
  <text id="template-version" style="stroke:none;fill:black;font-family:-apple-system,&quot;SF Pro Display&quot;,&quot;SF Pro Text&quot;,Helvetica,sans-serif;text-anchor:end;" transform="matrix(1 0 0 1 3036 1933)">Template v.2.0</text>
  <text style="stroke:none;fill:black;font-family:-apple-system,&quot;SF Pro Display&quot;,&quot;SF Pro Text&quot;,Helvetica,sans-serif;text-anchor:end;" transform="matrix(1 0 0 1 3036 1951)">Requires Xcode 12 or greater</text>
  <text style="stroke:none;fill:black;font-family:-apple-system,&quot;SF Pro Display&quot;,&quot;SF Pro Text&quot;,Helvetica,sans-serif;text-anchor:end;" transform="matrix(1 0 0 1 3036 1969)">Generated from crown</text>
  <text style="stroke:none;fill:black;font-family:-apple-system,&quot;SF Pro Display&quot;,&quot;SF Pro Text&quot;,Helvetica,sans-serif;text-anchor:end;" transform="matrix(1 0 0 1 3036 1987)">Typeset at 100 points</text>
  <text style="stroke:none;fill:black;font-family:-apple-system,&quot;SF Pro Display&quot;,&quot;SF Pro Text&quot;,Helvetica,sans-serif;" transform="matrix(1 0 0 1 263 726)">Small</text>
  <text style="stroke:none;fill:black;font-family:-apple-system,&quot;SF Pro Display&quot;,&quot;SF Pro Text&quot;,Helvetica,sans-serif;" transform="matrix(1 0 0 1 263 1156)">Medium</text>
  <text style="stroke:none;fill:black;font-family:-apple-system,&quot;SF Pro Display&quot;,&quot;SF Pro Text&quot;,Helvetica,sans-serif;" transform="matrix(1 0 0 1 263 1586)">Large</text>
 </g>
 <g id="Guides">
  <g id="H-reference" style="fill:#27AAE1;stroke:none;" transform="matrix(1 0 0 1 339 696)">
   <path d="M0.976562 0L3.66211 0L12.9883-24.4629L45.752-24.4629L55.127 0L57.7637 0L30.6152-70.459L28.125-70.459ZM29.3457-67.1387L29.4434-67.1387L44.873-26.709L13.8672-26.709Z"/>
  </g>
  <line id="Baseline-S" style="fill:none;stroke:#27AAE1;opacity:1;stroke-width:0.5;" x1="263" x2="3036" y1="696" y2="696"/>
  <line id="Capline-S" style="fill:none;stroke:#27AAE1;opacity:1;stroke-width:0.5;" x1="263" x2="3036" y1="625.541" y2="625.541"/>
  <g id="H-reference" style="fill:#27AAE1;stroke:none;" transform="matrix(1 0 0 1 339 1126)">
   <path d="M0.976562 0L3.66211 0L12.9883-24.4629L45.752-24.4629L55.127 0L57.7637 0L30.6152-70.459L28.125-70.459ZM29.3457-67.1387L29.4434-67.1387L44.873-26.709L13.8672-26.709Z"/>
  </g>
  <line id="Baseline-M" style="fill:none;stroke:#27AAE1;opacity:1;stroke-width:0.5;" x1="263" x2="3036" y1="1126" y2="1126"/>
  <line id="Capline-M" style="fill:none;stroke:#27AAE1;opacity:1;stroke-width:0.5;" x1="263" x2="3036" y1="1055.54" y2="1055.54"/>
  <g id="H-reference" style="fill:#27AAE1;stroke:none;" transform="matrix(1 0 0 1 339 1556)">
   <path d="M0.976562 0L3.66211 0L12.9883-24.4629L45.752-24.4629L55.127 0L57.7637 0L30.6152-70.459L28.125-70.459ZM29.3457-67.1387L29.4434-67.1387L44.873-26.709L13.8672-26.709Z"/>
  </g>
  <line id="Baseline-L" style="fill:none;stroke:#27AAE1;opacity:1;stroke-width:0.5;" x1="263" x2="3036" y1="1556" y2="1556"/>
  <line id="Capline-L" style="fill:none;stroke:#27AAE1;opacity:1;stroke-width:0.5;" x1="263" x2="3036" y1="1485.54" y2="1485.54"/>
  <line id="left-margin" style="fill:none;stroke:#00AEEF;stroke-width:0.5;opacity:1.0;" x1="1374.77" x2="1374.77" y1="1030.79" y2="1150.12"/>
  <line id="right-margin" style="fill:none;stroke:#00AEEF;stroke-width:0.5;opacity:1.0;" x1="1524.92" x2="1524.92" y1="1030.79" y2="1150.12"/>
 </g>
 <g id="Symbols">
  <g id="Black-L" transform="matrix(1 0 0 1 2828.44 1556)">
   <path d="M162.402 11.6699L175.293-40.8203C185.693-41.9434 193.848-50.7324 193.848-61.5234C193.848-72.9492 184.521-82.2266 173.096-82.2266C161.621-82.2266 152.344-72.9004 152.344-61.5234C152.344-60.0586 152.49-58.5938 152.783-57.2266L139.404-48.877C138.33-48.2422 137.646-48.3887 137.061-49.2188L118.848-73.9746C123.047-77.7832 125.684-83.3008 125.684-89.4043C125.684-100.83 116.406-110.107 104.98-110.107C93.5059-110.107 84.1797-100.83 84.1797-89.4043C84.1797-83.3008 86.8164-77.7832 91.0645-73.9746L73.291-49.8047C72.7051-48.9746 72.0215-48.7793 70.9473-49.4629L57.2754-58.0078C57.4707-59.1309 57.5684-60.3027 57.5684-61.5234C57.5684-72.9004 48.291-82.2266 36.8652-82.2266C25.3418-82.2266 16.0645-72.9492 16.0645-61.5234C16.0645-50.7324 24.2188-41.9434 34.668-40.8203L47.5586 11.6699C50.4883 23.7793 57.666 29.8828 69.8242 29.8828L140.137 29.8828C152.295 29.8828 159.473 23.7793 162.402 11.6699ZM104.98-83.8867C101.904-83.8867 99.4629-86.377 99.4629-89.4043C99.4629-92.4316 101.904-94.873 104.98-94.873C107.959-94.873 110.4-92.3828 110.4-89.4043C110.4-86.377 108.008-83.8867 104.98-83.8867ZM36.8652-56.0059C33.7891-56.0059 31.3477-58.4473 31.3477-61.5234C31.3477-64.5508 33.7891-66.9434 36.8652-66.9434C39.8438-66.9434 42.2852-64.502 42.2852-61.5234C42.2852-58.4473 39.8926-56.0059 36.8652-56.0059ZM173.096-56.0059C170.02-56.0059 167.627-58.4473 167.627-61.5234C167.627-64.502 170.068-66.9434 173.096-66.9434C176.074-66.9434 178.564-64.5508 178.564-61.5234C178.564-58.4473 176.074-56.0059 173.096-56.0059ZM64.6973-32.7637C72.5098-28.2715 81.0547-29.5898 86.2305-36.6699L104.98-62.0605L124.121-36.084C129.297-29.0039 137.891-27.6855 145.703-32.1777L155.762-38.0371L150.342-15.8203L59.6191-15.8203L53.9551-39.0137ZM69.7754 11.5723C67.5293 11.5723 66.0156 10.4492 65.4785 8.39844L64.0625 2.44141L145.898 2.44141L144.434 8.39844C143.945 10.4492 142.432 11.5723 140.186 11.5723Z"/>
  </g>
  <g id="Heavy-L" transform="matrix(1 0 0 1 2534.05 1556)">
   <path d="M158.398 10.5957L171.143-41.2598C181.201-41.9922 189.209-50.4395 189.209-60.7422C189.209-71.4844 180.42-80.2246 169.678-80.2246C158.887-80.2246 150.146-71.4844 150.146-60.7422C150.146-59.082 150.342-57.4219 150.732-55.8594L136.865-47.2656C135.498-46.3867 134.57-46.6309 133.74-47.7051L115.137-72.9004C119.434-76.5137 122.168-81.8848 122.168-87.9395C122.168-98.6328 113.379-107.422 102.637-107.422C91.8457-107.422 83.1055-98.6816 83.1055-87.9395C83.1055-81.8848 85.8398-76.4648 90.1367-72.9004L71.7773-48.0469C70.9961-47.0215 70.1172-46.7773 68.7988-47.6562L54.6387-56.4453C54.9805-57.8125 55.127-59.2773 55.127-60.7422C55.127-71.4844 46.3867-80.2246 35.6445-80.2246C24.8047-80.2246 16.0645-71.4844 16.0645-60.7422C16.0645-50.4395 24.0723-41.9922 34.1797-41.2598L46.875 10.5957C49.707 22.168 56.3477 27.9297 68.0176 27.9297L137.305 27.9297C148.926 27.9297 155.615 22.168 158.398 10.5957ZM102.637-82.0312C99.4141-82.0312 96.7285-84.668 96.7285-87.9395C96.7285-91.1621 99.4141-93.75 102.637-93.75C105.859-93.75 108.496-91.1133 108.496-87.9395C108.496-84.668 105.908-82.0312 102.637-82.0312ZM35.6445-54.834C32.373-54.834 29.7363-57.4707 29.7363-60.7422C29.7363-64.0137 32.373-66.6016 35.6445-66.6016C38.8184-66.6016 41.4551-63.916 41.4551-60.7422C41.4551-57.4707 38.8672-54.834 35.6445-54.834ZM169.678-54.834C166.357-54.834 163.77-57.4707 163.77-60.7422C163.77-63.916 166.455-66.6016 169.678-66.6016C172.9-66.6016 175.537-64.0137 175.537-60.7422C175.537-57.4707 172.9-54.834 169.678-54.834ZM63.2324-33.1055C70.166-29.0527 78.2227-30.0781 83.1055-36.7676L102.637-63.1348L122.559-36.2793C127.393-29.6875 135.4-28.6133 142.188-32.5684L154.395-39.7461L148.145-14.0625L57.1777-14.0625L50.7324-40.4297ZM67.9199 12.0117C65.0391 12.0117 63.1836 10.5957 62.5488 7.91016L61.0352 1.80664L144.287 1.80664L142.773 7.91016C142.139 10.5957 140.283 12.0117 137.354 12.0117Z"/>
  </g>
  <g id="Bold-L" transform="matrix(1 0 0 1 2239.95 1556)">
   <path d="M153.955 9.42383L166.553-41.6992C176.221-42.0898 183.984-50.0977 183.984-59.9121C183.984-69.873 175.879-78.0273 165.82-78.0273C155.811-78.0273 147.656-69.873 147.656-59.9121C147.656-57.959 147.949-56.1523 148.535-54.3945L134.082-45.459C132.275-44.3359 131.104-44.6289 130.078-46.0449L110.986-71.7285C115.332-75.0488 118.164-80.3223 118.164-86.2793C118.164-96.2402 110.059-104.395 100.049-104.395C89.9902-104.395 81.8848-96.2402 81.8848-86.2793C81.8848-80.3223 84.7168-75.0488 89.1602-71.7285L70.0684-46.0938C69.0918-44.7754 68.0176-44.5312 66.3574-45.6055L51.6113-54.6875C52.0996-56.3477 52.3926-58.1055 52.3926-59.9121C52.3926-69.873 44.2383-78.0273 34.2773-78.0273C24.2188-78.0273 16.0645-69.873 16.0645-59.9121C16.0645-50.0488 23.877-42.0898 33.5938-41.6992L46.1426 9.42383C48.8281 20.3125 54.8828 25.7324 65.9668 25.7324L134.131 25.7324C145.215 25.7324 151.318 20.3125 153.955 9.42383ZM100.049-79.9316C96.582-79.9316 93.7012-82.7637 93.7012-86.2793C93.7012-89.7461 96.582-92.5293 100.049-92.5293C103.467-92.5293 106.348-89.6973 106.348-86.2793C106.348-82.7637 103.564-79.9316 100.049-79.9316ZM34.2773-53.5645C30.7617-53.5645 27.9297-56.3965 27.9297-59.9121C27.9297-63.3789 30.7617-66.1621 34.2773-66.1621C37.6953-66.1621 40.5273-63.3301 40.5273-59.9121C40.5273-56.3965 37.7441-53.5645 34.2773-53.5645ZM165.82-53.5645C162.305-53.5645 159.521-56.3965 159.521-59.9121C159.521-63.3301 162.354-66.1621 165.82-66.1621C169.287-66.1621 172.168-63.3789 172.168-59.9121C172.168-56.3965 169.287-53.5645 165.82-53.5645ZM61.5723-33.4473C67.5781-29.9316 75-30.6152 79.5898-36.8164L100.098-64.2578L120.801-36.4258C125.293-30.4199 132.617-29.6875 138.33-33.0078L152.881-41.6992L145.654-12.0605L54.4434-12.0605L47.1191-42.0898ZM65.918 12.5C62.2559 12.5 60.0098 10.791 59.1797 7.37305L57.666 1.12305L142.432 1.12305L140.918 7.37305C140.088 10.791 137.842 12.5 134.229 12.5Z"/>
  </g>
  <g id="Semibold-L" transform="matrix(1 0 0 1 1945.02 1556)">
   <path d="M150.879 8.64258L163.33-42.0898C172.656-42.0898 180.42-49.8047 180.42-59.3262C180.42-68.7988 172.705-76.5137 163.184-76.5137C153.711-76.5137 145.996-68.75 145.996-59.3262C145.996-57.2266 146.338-55.2246 147.021-53.418L132.129-44.2383C130.078-42.9199 128.711-43.2617 127.49-44.9219L108.057-70.9473C112.549-74.0723 115.43-79.248 115.43-85.1074C115.43-94.5312 107.715-102.295 98.291-102.295C88.7207-102.295 81.0059-94.5801 81.0059-85.1074C81.0059-79.248 83.9844-74.0234 88.4766-70.8984L68.8965-44.7754C67.8223-43.2617 66.5527-43.0176 64.6973-44.1895L49.5117-53.5645C50.1465-55.3711 50.4883-57.2754 50.4883-59.3262C50.4883-68.75 42.7734-76.5137 33.3008-76.5137C23.7793-76.5137 16.0645-68.7988 16.0645-59.3262C16.0645-49.8047 23.7305-42.1387 33.2031-42.0898L45.6543 8.64258C48.1934 19.0918 53.9062 24.2188 64.5996 24.2188L131.934 24.2188C142.627 24.2188 148.34 19.0918 150.879 8.64258ZM98.291-78.4668C94.6289-78.4668 91.6016-81.4941 91.6016-85.1074C91.6016-88.7695 94.6289-91.6992 98.291-91.6992C101.855-91.6992 104.834-88.7207 104.834-85.1074C104.834-81.4941 101.953-78.4668 98.291-78.4668ZM33.3008-52.6367C29.6387-52.6367 26.6602-55.6641 26.6602-59.3262C26.6602-62.9883 29.6387-65.918 33.3008-65.918C36.9141-65.918 39.8926-62.8906 39.8926-59.3262C39.8926-55.6641 36.9629-52.6367 33.3008-52.6367ZM163.184-52.6367C159.473-52.6367 156.592-55.6641 156.592-59.3262C156.592-62.8906 159.57-65.918 163.184-65.918C166.797-65.918 169.824-62.9883 169.824-59.3262C169.824-55.6641 166.797-52.6367 163.184-52.6367ZM60.4492-33.6914C65.8203-30.5176 72.8027-31.0059 77.1484-36.8652L98.291-65.0879L119.629-36.5723C123.779-30.9082 130.713-30.3711 135.645-33.3008L151.855-43.0664L143.945-10.7422L52.5879-10.7422L44.6289-43.2617ZM64.502 12.8418C60.3516 12.8418 57.8613 10.8887 56.8848 7.03125L55.3711 0.634766L141.162 0.634766L139.648 7.03125C138.672 10.8887 136.182 12.8418 132.031 12.8418Z"/>
  </g>
  <g id="Medium-L" transform="matrix(1 0 0 1 1649.68 1556)">
   <path d="M32.5684-42.334C32.666-42.334 32.7637-42.334 32.8613-42.334L45.2637 8.00781C47.7539 18.1152 53.125 23.0469 63.5254 23.0469L130.273 23.0469C140.674 23.0469 146.094 18.1152 148.535 8.00781L160.938-42.334C161.035-42.334 161.084-42.334 161.182-42.334C170.264-42.334 177.686-49.7559 177.686-58.8867C177.686-67.9199 170.312-75.3418 161.182-75.3418C152.1-75.3418 144.678-67.8711 144.678-58.8867C144.678-56.6895 145.117-54.5898 145.898-52.6367L130.664-43.2617C128.369-41.8457 126.904-42.2363 125.586-44.043L105.859-70.3613C110.4-73.3398 113.379-78.418 113.379-84.2285C113.379-93.2617 106.006-100.732 96.9238-100.732C87.793-100.732 80.3711-93.3105 80.3711-84.2285C80.3711-78.418 83.4473-73.291 88.0371-70.3125L68.0176-43.75C66.7969-42.1387 65.4297-41.8457 63.4277-43.1152L47.8516-52.6855C48.6328-54.5898 49.0723-56.6895 49.0723-58.8867C49.0723-67.8711 41.6504-75.3418 32.5684-75.3418C23.4375-75.3418 16.0645-67.9199 16.0645-58.8867C16.0645-49.7559 23.4863-42.334 32.5684-42.334ZM96.9238-77.3926C93.1641-77.3926 90.0391-80.4688 90.0391-84.2285C90.0391-88.0371 93.1641-91.0645 96.9238-91.0645C100.635-91.0645 103.711-87.9395 103.711-84.2285C103.711-80.4688 100.732-77.3926 96.9238-77.3926ZM32.5684-52.002C28.8086-52.002 25.6836-55.0781 25.6836-58.8867C25.6836-62.6465 28.8086-65.6738 32.5684-65.6738C36.2793-65.6738 39.4043-62.5977 39.4043-58.8867C39.4043-55.0781 36.377-52.002 32.5684-52.002ZM161.182-52.002C157.373-52.002 154.346-55.0781 154.346-58.8867C154.346-62.5977 157.471-65.6738 161.182-65.6738C164.941-65.6738 168.066-62.6465 168.066-58.8867C168.066-55.0781 164.941-52.002 161.182-52.002ZM59.6191-33.8867C64.4531-30.957 71.1426-31.2988 75.3418-36.9141L96.9727-65.6738L118.701-36.6699C122.705-31.2988 129.297-30.9082 133.594-33.5449L151.074-44.1406L142.676-9.7168L51.1719-9.7168L42.7246-44.1406ZM63.4277 13.0859C58.8867 13.0859 56.2012 10.9863 55.1758 6.73828L53.5645 0.292969L140.234 0.292969L138.672 6.73828C137.598 10.9863 134.912 13.0859 130.371 13.0859Z"/>
  </g>
  <g id="Regular-L" transform="matrix(1 0 0 1 1354.73 1556)">
   <path d="M31.6406-42.6758C31.9336-42.6758 32.1777-42.7246 32.4707-42.7246L44.7754 7.22656C47.1191 16.8945 52.1484 21.582 62.1094 21.582L128.125 21.582C138.135 21.582 143.164 16.8945 145.508 7.22656L157.812-42.7246C158.057-42.7246 158.301-42.6758 158.545-42.6758C167.139-42.6758 174.17-49.6582 174.17-58.3008C174.17-66.8457 167.188-73.8281 158.545-73.8281C150-73.8281 143.018-66.7969 143.018-58.3008C143.018-55.9082 143.555-53.7109 144.482-51.709L128.76-42.041C126.221-40.4785 124.561-40.8691 123.047-42.9199L102.93-69.6289C107.568-72.3633 110.693-77.3438 110.693-83.1055C110.693-91.6504 103.711-98.6328 95.1172-98.6328C86.5234-98.6328 79.541-91.6992 79.541-83.1055C79.541-77.3438 82.7148-72.2656 87.4023-69.5801L66.8945-42.4316C65.5273-40.625 64.0137-40.2832 61.7676-41.6992L45.6543-51.5625C46.6309-53.6133 47.168-55.9082 47.168-58.3008C47.168-66.7969 40.1855-73.8281 31.6406-73.8281C23.0469-73.8281 16.0645-66.8457 16.0645-58.3008C16.0645-49.6582 23.0957-42.6758 31.6406-42.6758ZM95.1172-75.9277C91.2109-75.9277 87.9395-79.1992 87.9395-83.1055C87.9395-87.1094 91.2109-90.2344 95.1172-90.2344C99.0234-90.2344 102.246-87.0117 102.246-83.1055C102.246-79.1992 99.1211-75.9277 95.1172-75.9277ZM58.4961-34.1309C62.6953-31.543 68.9941-31.6406 72.9492-36.9629L95.2148-66.4062L117.529-36.7676C121.24-31.8359 127.393-31.6406 130.908-33.8379L149.805-45.4102C149.854-45.3613 149.951-45.3125 150-45.2637L140.967-8.34961L49.3164-8.34961L40.2832-45.3125ZM31.6406-51.123C27.7344-51.123 24.4629-54.3457 24.4629-58.3008C24.4629-62.2559 27.7344-65.4297 31.6406-65.4297C35.5469-65.4297 38.7695-62.1582 38.7695-58.3008C38.7695-54.3457 35.6445-51.123 31.6406-51.123ZM158.545-51.123C154.59-51.123 151.416-54.3457 151.416-58.3008C151.416-62.1582 154.688-65.4297 158.545-65.4297C162.5-65.4297 165.723-62.2559 165.723-58.3008C165.723-54.3457 162.5-51.123 158.545-51.123ZM62.0605 13.4277C56.9824 13.4277 54.0527 11.084 52.8809 6.34766L51.2695-0.195312L138.965-0.195312L137.402 6.34766C136.23 11.084 133.301 13.4277 128.223 13.4277Z"/>
  </g>
  <g id="Light-L" transform="matrix(1 0 0 1 1060.43 1556)">
   <path d="M30.6152-43.5059C31.1523-43.5059 31.6406-43.5547 32.1289-43.6035L44.5312 6.83594C46.8262 16.2109 51.5625 20.459 61.0352 20.459L124.463 20.459C133.936 20.459 138.672 16.2109 140.967 6.83594L153.369-43.6035C153.857-43.5547 154.297-43.5059 154.785-43.5059C162.793-43.5059 169.336-50.0488 169.336-58.1055C169.336-66.1133 162.793-72.6562 154.785-72.6562C146.777-72.6562 140.234-66.0645 140.234-58.1055C140.234-55.2734 141.016-52.6855 142.383-50.4395L126.27-40.5762C123.34-38.7695 121.24-39.209 119.336-41.6992L99.1699-68.0176C103.955-70.4102 107.275-75.3906 107.275-81.1035C107.275-89.0625 100.781-95.6543 92.7734-95.6543C84.7168-95.6543 78.1738-89.1113 78.1738-81.1035C78.1738-75.293 81.5918-70.3125 86.4746-67.9688L65.625-40.8691C63.9648-38.7695 62.0605-38.5254 59.6191-39.9902L42.8711-50.293C44.3359-52.5391 45.166-55.2246 45.166-58.1055C45.166-66.0645 38.623-72.6562 30.6152-72.6562C22.6074-72.6562 16.0645-66.1133 16.0645-58.1055C16.0645-50.0488 22.6074-43.5059 30.6152-43.5059ZM92.7734-72.998C88.3301-72.998 84.668-76.6602 84.668-81.1035C84.668-85.5957 88.3301-89.1602 92.7734-89.1602C97.168-89.1602 100.83-85.498 100.83-81.1035C100.83-76.6602 97.2168-72.998 92.7734-72.998ZM30.6152-50C26.1719-50 22.5098-53.6621 22.5098-58.1055C22.5098-62.5488 26.1719-66.1621 30.6152-66.1621C35.0586-66.1621 38.7207-62.5 38.7207-58.1055C38.7207-53.6621 35.1074-50 30.6152-50ZM154.785-50C150.293-50 146.68-53.6621 146.68-58.1055C146.68-62.5 150.342-66.1621 154.785-66.1621C159.229-66.1621 162.891-62.5488 162.891-58.1055C162.891-53.6621 159.229-50 154.785-50ZM56.6895-34.4238C61.084-31.6895 66.7969-32.0312 70.5078-36.9141L92.8223-65.918L115.332-36.6211C118.604-32.2754 124.121-31.8359 127.49-33.8867L146.924-45.8496C147.07-45.752 147.217-45.6543 147.314-45.6055L137.842-6.68945L47.7051-6.68945L38.1836-45.6543L38.2812-45.7031ZM60.9375 14.1602C55.4688 14.1602 52.1484 11.5723 50.8789 6.39648L49.2188-0.390625L136.279-0.390625L134.619 6.39648C133.35 11.5723 130.029 14.1602 124.561 14.1602Z"/>
  </g>
  <g id="Thin-L" transform="matrix(1 0 0 1 766.896 1556)">
   <path d="M29.2969-44.6289C30.0781-44.6289 30.8594-44.6777 31.6406-44.8242L44.2871 6.29883C46.4844 15.332 50.8301 18.9941 59.5703 18.9941L119.629 18.9941C128.369 18.9941 132.715 15.332 134.912 6.29883L147.559-44.8242C148.291-44.6777 149.023-44.6289 149.756-44.6289C157.031-44.6289 162.988-50.5859 162.988-57.8613C162.988-65.1367 157.031-71.0449 149.756-71.0449C142.48-71.0449 136.523-65.1367 136.523-57.8613C136.523-54.4434 137.842-51.3184 139.99-48.9746L122.998-38.623C119.58-36.5234 116.797-36.9629 114.453-40.0391L94.043-65.9668C99.1699-67.8223 102.832-72.7051 102.832-78.418C102.832-85.6934 96.875-91.6504 89.5996-91.6504C82.3242-91.6504 76.3672-85.6934 76.3672-78.418C76.3672-72.6562 80.1758-67.6758 85.3516-65.918L63.9648-38.8672C61.9629-36.3281 59.4727-36.1328 56.7871-37.793L38.8672-48.7793C41.1133-51.123 42.4805-54.3457 42.4805-57.8613C42.4805-65.1367 36.5723-71.0449 29.2969-71.0449C22.0215-71.0449 16.0645-65.1367 16.0645-57.8613C16.0645-50.5859 22.0215-44.6289 29.2969-44.6289ZM89.5996-69.0918C84.4727-69.0918 80.2734-73.291 80.2734-78.418C80.2734-83.5938 84.4727-87.7441 89.5996-87.7441C94.7266-87.7441 98.9258-83.5449 98.9258-78.418C98.9258-73.291 94.7266-69.0918 89.5996-69.0918ZM29.2969-48.5352C24.1699-48.5352 19.9707-52.7344 19.9707-57.8613C19.9707-62.9883 24.1699-67.1875 29.2969-67.1875C34.4238-67.1875 38.623-62.9883 38.623-57.8613C38.623-52.7344 34.4238-48.5352 29.2969-48.5352ZM149.756-48.5352C144.629-48.5352 140.43-52.7344 140.43-57.8613C140.43-62.9883 144.629-67.1875 149.756-67.1875C154.883-67.1875 159.082-62.9883 159.082-57.8613C159.082-52.7344 154.883-48.5352 149.756-48.5352ZM54.248-34.7656C58.9844-31.8359 63.9648-32.5684 67.2852-36.8164L89.6973-65.2344L89.7949-65.2344L112.402-36.4258C115.088-32.9102 119.775-32.0801 122.949-34.0332L143.164-46.4355C143.359-46.2891 143.604-46.1914 143.799-46.0449L133.643-4.49219L45.5566-4.49219L35.4004-46.1426C35.4492-46.1426 35.498-46.1914 35.5957-46.2402ZM59.4727 15.1367C53.418 15.1367 49.6094 12.1582 48.1934 6.44531L46.4844-0.634766L132.715-0.634766L131.006 6.44531C129.59 12.1582 125.781 15.1367 119.727 15.1367Z"/>
  </g>
  <g id="Ultralight-L" transform="matrix(1 0 0 1 471.82 1556)">
   <path d="M28.6133-45.2148C29.541-45.2148 30.5176-45.3125 31.3965-45.5078L44.1406 6.00586C46.2891 14.8438 50.4395 18.2617 58.7891 18.2617L117.139 18.2617C125.488 18.2617 129.688 14.8438 131.836 6.00586L144.58-45.459C145.41-45.3125 146.289-45.2148 147.217-45.2148C154.102-45.2148 159.717-50.8301 159.717-57.7148C159.717-64.5996 154.102-70.2637 147.217-70.2637C140.283-70.2637 134.668-64.6484 134.668-57.7148C134.668-54.0039 136.279-50.6348 138.916-48.3398L121.338-37.5977C117.676-35.3516 114.551-35.8398 111.914-39.209L91.3574-64.9902C96.6309-66.5039 100.537-71.3379 100.537-77.0508C100.537-83.9844 94.873-89.5996 87.9883-89.5996C81.1035-89.5996 75.4395-83.9844 75.4395-77.0508C75.4395-71.2402 79.4922-66.3086 84.8633-64.9414L63.0859-37.8418C60.9375-35.0586 58.1055-34.9121 55.3223-36.6699L36.6211-48.0957C39.3555-50.3906 41.1621-53.8574 41.1621-57.7148C41.1621-64.6484 35.498-70.2637 28.6133-70.2637C21.7285-70.2637 16.0645-64.5996 16.0645-57.7148C16.0645-50.8301 21.6797-45.2148 28.6133-45.2148ZM87.9883-67.1387C82.5195-67.1387 78.0273-71.582 78.0273-77.0508C78.0273-82.5195 82.5195-87.0117 87.9883-87.0117C93.457-87.0117 97.9492-82.5684 97.9492-77.0508C97.9492-71.582 93.457-67.1387 87.9883-67.1387ZM28.6133-47.7539C23.1445-47.7539 18.6523-52.2461 18.6523-57.7148C18.6523-63.1836 23.1445-67.6758 28.6133-67.6758C34.082-67.6758 38.5742-63.2324 38.5742-57.7148C38.5742-52.2461 34.082-47.7539 28.6133-47.7539ZM147.217-47.7539C141.748-47.7539 137.256-52.2461 137.256-57.7148C137.256-63.2324 141.699-67.6758 147.217-67.6758C152.686-67.6758 157.129-63.1836 157.129-57.7148C157.129-52.2461 152.686-47.7539 147.217-47.7539ZM87.9883-64.5508C88.1348-64.5508 88.2812-64.5508 88.4277-64.5508L110.889-36.3281C113.33-33.252 117.529-32.1777 120.605-34.082L141.211-46.7285C141.504-46.582 141.748-46.4355 141.992-46.3379L131.543-3.36914L44.4336-3.36914L33.9355-46.3867C34.0332-46.4355 34.1309-46.4844 34.1797-46.5332L53.0273-34.9609C57.9102-31.9336 62.5-32.8125 65.625-36.7676L87.8418-64.4531L87.6953-64.5508C87.793-64.5508 87.8906-64.5508 87.9883-64.5508ZM58.7402 15.625C52.3926 15.625 48.3398 12.5 46.8262 6.49414L45.0684-0.732422L130.859-0.732422L129.102 6.49414C127.637 12.5 123.584 15.625 117.236 15.625Z"/>
  </g>
  <g id="Black-M" transform="matrix(1 0 0 1 2850.22 1126)">
   <path d="M128.809 2.29492L139.062-39.4531C147.412-40.5762 153.906-47.8027 153.906-56.543C153.906-65.9668 146.191-73.6816 136.768-73.6816C127.246-73.6816 119.531-65.9668 119.531-56.543C119.531-55.4199 119.629-54.3457 119.824-53.2715L110.107-47.2168C109.57-46.875 109.082-46.9238 108.691-47.4121L95.166-65.7715C98.3887-68.8965 100.391-73.291 100.391-78.1738C100.391-87.5977 92.6758-95.3125 83.2031-95.3125C73.6816-95.3125 65.9668-87.5977 65.9668-78.1738C65.9668-73.291 68.0176-68.8965 71.2402-65.7715L58.2031-48.0469C57.8125-47.5586 57.3242-47.5098 56.7871-47.8516L46.6797-54.1504C46.7773-54.9316 46.8262-55.7129 46.8262-56.543C46.8262-65.9668 39.1602-73.6816 29.6875-73.6816C20.166-73.6816 12.4512-65.9668 12.4512-56.543C12.4512-47.8027 18.9453-40.5762 27.3926-39.4531L37.6465 2.29492C40.0879 12.3047 46.1426 17.2363 55.957 17.2363L110.449 17.2363C120.264 17.2363 126.367 12.3047 128.809 2.29492ZM83.2031-73.9258C80.8594-73.9258 79.0039-75.7812 79.0039-78.1738C79.0039-80.4688 80.8594-82.3242 83.2031-82.3242C85.5469-82.3242 87.4023-80.4688 87.4023-78.1738C87.4023-75.7812 85.498-73.9258 83.2031-73.9258ZM29.6875-52.2949C27.2949-52.2949 25.4395-54.1504 25.4395-56.543C25.4395-58.8379 27.2949-60.6934 29.6875-60.6934C31.9824-60.6934 33.8379-58.8379 33.8379-56.543C33.8379-54.1504 31.9824-52.2949 29.6875-52.2949ZM136.768-52.2949C134.375-52.2949 132.52-54.1504 132.52-56.543C132.52-58.8379 134.375-60.6934 136.768-60.6934C139.062-60.6934 140.918-58.8379 140.918-56.543C140.918-54.1504 139.062-52.2949 136.768-52.2949ZM51.123-33.0566C58.4473-28.9062 65.5273-30.4199 69.7754-36.2305L83.2031-54.4434L97.1191-35.5957C101.367-29.7852 108.447-28.2715 115.771-32.4219L121.191-35.498L117.822-21.6797L48.584-21.6797L44.9707-36.5234ZM55.9082 0.878906C54.834 0.878906 53.9551 0.195312 53.7109-0.732422L52.5879-5.27344L113.818-5.27344L112.744-0.732422C112.5 0.195312 111.572 0.878906 110.498 0.878906Z"/>
  </g>
  <g id="Heavy-M" transform="matrix(1 0 0 1 2555.41 1126)">
   <path d="M125.635 1.26953L135.693-39.6973C143.75-40.5273 150.098-47.4121 150.098-55.7617C150.098-64.5996 142.871-71.8262 133.984-71.8262C125.049-71.8262 117.871-64.5996 117.871-55.7617C117.871-54.541 117.969-53.3203 118.213-52.1973L108.008-45.8496C107.178-45.3125 106.543-45.4102 106.055-46.0938L92.0898-65.0391C95.3125-68.0176 97.4121-72.3145 97.4121-77.0508C97.4121-85.8887 90.1855-93.1641 81.2988-93.1641C72.3633-93.1641 65.1367-85.9375 65.1367-77.0508C65.1367-72.2656 67.2363-68.0176 70.5078-65.0391L56.8359-46.5332C56.3477-45.8984 55.7617-45.752 54.9805-46.2891L44.4336-52.832C44.6289-53.7598 44.6777-54.7363 44.6777-55.7617C44.6777-64.5996 37.4512-71.8262 28.6133-71.8262C19.6777-71.8262 12.4512-64.5996 12.4512-55.7617C12.4512-47.3633 18.7988-40.5273 26.9043-39.6973L36.9629 1.26953C39.2578 10.7422 44.873 15.4297 54.2969 15.4297L108.301 15.4297C117.725 15.4297 123.34 10.7422 125.635 1.26953ZM81.2988-72.6074C78.8574-72.6074 76.8555-74.6094 76.8555-77.0508C76.8555-79.4922 78.8574-81.3965 81.2988-81.3965C83.6914-81.3965 85.6445-79.4434 85.6445-77.0508C85.6445-74.6094 83.7402-72.6074 81.2988-72.6074ZM28.6133-51.3184C26.123-51.3184 24.1699-53.2715 24.1699-55.7617C24.1699-58.1543 26.123-60.1074 28.6133-60.1074C31.0059-60.1074 32.959-58.1543 32.959-55.7617C32.959-53.2715 31.0059-51.3184 28.6133-51.3184ZM133.984-51.3184C131.543-51.3184 129.59-53.2715 129.59-55.7617C129.59-58.1543 131.543-60.1074 133.984-60.1074C136.377-60.1074 138.379-58.1543 138.379-55.7617C138.379-53.2715 136.377-51.3184 133.984-51.3184ZM50-33.3496C56.3477-29.6875 62.9883-30.8594 66.9922-36.3281L81.2988-55.6641L95.9961-35.8398C99.9512-30.3711 106.592-29.1992 112.842-32.8125L120.361-37.1582L116.211-20.166L46.3867-20.166L42.041-37.9395ZM54.1992 1.17188C52.5391 1.17188 51.3672 0.244141 50.9766-1.26953L49.8535-5.9082L112.744-5.9082L111.621-1.26953C111.23 0.244141 110.059 1.17188 108.398 1.17188Z"/>
  </g>
  <g id="Bold-M" transform="matrix(1 0 0 1 2260.85 1126)">
   <path d="M122.07 0.0976562L131.934-39.9414C139.648-40.4785 145.801-46.9727 145.801-54.8828C145.801-63.0859 139.111-69.7266 130.908-69.7266C122.656-69.7266 115.967-63.0371 115.967-54.8828C115.967-53.5156 116.162-52.2461 116.504-51.0254L105.664-44.2871C104.492-43.5547 103.76-43.75 103.076-44.6289L88.5742-64.2578C91.8945-66.9922 94.043-71.1426 94.043-75.8301C94.043-83.9844 87.3535-90.7227 79.1504-90.7227C70.8984-90.7227 64.209-84.0332 64.209-75.8301C64.209-71.1426 66.3574-66.9922 69.7266-64.2578L55.3711-44.873C54.7363-43.9941 54.0039-43.8477 52.9297-44.5312L41.8945-51.3672C42.1387-52.4902 42.2852-53.6621 42.2852-54.8828C42.2852-63.0371 35.5957-69.7266 27.3926-69.7266C19.1406-69.7266 12.4512-63.0859 12.4512-54.8828C12.4512-46.9238 18.6035-40.4785 26.3672-39.9414L36.2305 0.0976562C38.3789 8.93555 43.457 13.3301 52.3926 13.3301L105.908 13.3301C114.844 13.3301 119.922 8.93555 122.07 0.0976562ZM79.1504-71.1914C76.6113-71.1914 74.5117-73.2422 74.5117-75.8301C74.5117-78.3691 76.6113-80.4199 79.1504-80.4199C81.6406-80.4199 83.7402-78.3203 83.7402-75.8301C83.7402-73.2422 81.6895-71.1914 79.1504-71.1914ZM27.3926-50.2441C24.8535-50.2441 22.7539-52.2949 22.7539-54.8828C22.7539-57.4219 24.8535-59.4238 27.3926-59.4238C29.8828-59.4238 31.9824-57.373 31.9824-54.8828C31.9824-52.2949 29.9316-50.2441 27.3926-50.2441ZM130.908-50.2441C128.32-50.2441 126.27-52.2949 126.27-54.8828C126.27-57.373 128.369-59.4238 130.908-59.4238C133.398-59.4238 135.498-57.4219 135.498-54.8828C135.498-52.2949 133.398-50.2441 130.908-50.2441ZM48.7305-33.6426C53.9551-30.6152 60.1074-31.3477 63.8672-36.4258L79.1504-57.0312L94.7266-36.084C98.3887-31.0547 104.541-30.2734 109.619-33.252L119.434-39.0625L114.453-18.5059L43.8477-18.5059L38.7207-39.5508ZM52.3438 1.46484C49.9512 1.46484 48.4375 0.292969 47.9004-1.85547L46.7773-6.64062L111.523-6.64062L110.4-1.85547C109.863 0.292969 108.35 1.46484 106.006 1.46484Z"/>
  </g>
  <g id="Semibold-M" transform="matrix(1 0 0 1 1965.61 1126)">
   <path d="M119.629-0.683594L129.346-40.1367C136.816-40.4785 142.871-46.6309 142.871-54.248C142.871-62.0117 136.523-68.3105 128.76-68.3105C120.996-68.3105 114.697-61.9629 114.697-54.248C114.697-52.832 114.893-51.4648 115.283-50.1953L104.004-43.2129C102.637-42.334 101.807-42.5781 101.074-43.6523L86.1816-63.7207C89.5508-66.3086 91.748-70.3613 91.748-74.9512C91.748-82.666 85.4004-89.0137 77.6855-89.0137C69.873-89.0137 63.5742-82.7148 63.5742-74.9512C63.5742-70.3613 65.7715-66.2598 69.1895-63.7207L54.3457-43.7012C53.6133-42.7246 52.832-42.5293 51.5137-43.3105L40.0879-50.3906C40.4297-51.6113 40.625-52.9297 40.625-54.248C40.625-61.9629 34.3262-68.3105 26.5625-68.3105C18.75-68.3105 12.4512-62.0117 12.4512-54.248C12.4512-46.6309 18.5059-40.4297 26.0254-40.1367L35.6934-0.683594C37.7441 7.71484 42.4316 11.9141 51.0742 11.9141L104.248 11.9141C112.891 11.9141 117.578 7.71484 119.629-0.683594ZM77.6855-70.166C75.0488-70.166 72.9004-72.3633 72.9004-74.9512C72.9004-77.5879 75.0488-79.6875 77.6855-79.6875C80.2246-79.6875 82.4219-77.5391 82.4219-74.9512C82.4219-72.3633 80.3223-70.166 77.6855-70.166ZM26.5625-49.4629C23.9258-49.4629 21.7773-51.6113 21.7773-54.248C21.7773-56.8848 23.9258-58.9844 26.5625-58.9844C29.1504-58.9844 31.2988-56.8359 31.2988-54.248C31.2988-51.6113 29.1992-49.4629 26.5625-49.4629ZM128.76-49.4629C126.123-49.4629 124.023-51.6113 124.023-54.248C124.023-56.8359 126.172-58.9844 128.76-58.9844C131.348-58.9844 133.545-56.8848 133.545-54.248C133.545-51.6113 131.348-49.4629 128.76-49.4629ZM47.9004-33.8379C52.3438-31.2012 58.1543-31.6406 61.6699-36.4746L77.6855-58.0078L93.8477-36.2305C97.3633-31.4941 103.076-31.0547 107.373-33.5449L118.848-40.4297L113.184-17.334L42.1387-17.334L36.4258-40.6738ZM51.0254 1.66016C48.1445 1.66016 46.4355 0.341797 45.8008-2.29492L44.6289-7.12891L110.693-7.12891L109.521-2.29492C108.887 0.341797 107.178 1.66016 104.346 1.66016Z"/>
  </g>
  <g id="Medium-M" transform="matrix(1 0 0 1 1670.02 1126)">
   <path d="M117.773-1.31836L127.393-40.332C134.57-40.332 140.625-46.3379 140.625-53.8086C140.625-61.1816 134.57-67.2363 127.148-67.2363C119.727-67.2363 113.721-61.1816 113.721-53.8086C113.721-52.2949 113.965-50.8789 114.404-49.5605L102.783-42.3828C101.27-41.4551 100.342-41.6992 99.5117-42.8711L84.3262-63.3301C87.7441-65.7715 89.9902-69.7754 89.9902-74.3164C89.9902-81.6895 83.9355-87.7441 76.5625-87.7441C69.0918-87.7441 63.0859-81.7383 63.0859-74.3164C63.0859-69.7754 65.332-65.7715 68.7988-63.3301L53.5645-42.8223C52.7832-41.748 51.9043-41.5039 50.4883-42.3828L38.7207-49.6582C39.1113-50.9766 39.3555-52.3438 39.3555-53.8086C39.3555-61.1816 33.3496-67.2363 25.9277-67.2363C18.457-67.2363 12.4512-61.1816 12.4512-53.8086C12.4512-46.4355 18.4082-40.4297 25.7324-40.332L35.3027-1.31836C37.3047 6.78711 41.6992 10.8398 50.0977 10.8398L103.027 10.8398C111.426 10.8398 115.82 6.78711 117.773-1.31836ZM76.5625-69.4336C73.877-69.4336 71.6797-71.6309 71.6797-74.3164C71.6797-77.0508 73.877-79.1504 76.5625-79.1504C79.1992-79.1504 81.3965-76.9531 81.3965-74.3164C81.3965-71.6309 79.248-69.4336 76.5625-69.4336ZM47.2168-33.9844C51.123-31.6895 56.6406-31.9336 60.0586-36.5234L76.5625-58.7402L93.2129-36.377C96.5332-31.8359 102.002-31.5918 105.664-33.7891L118.359-41.4551L112.256-16.5039L40.8203-16.5039L34.7168-41.6016ZM25.9277-48.9258C23.2422-48.9258 21.0449-51.123 21.0449-53.8086C21.0449-56.4941 23.2422-58.6426 25.9277-58.6426C28.5645-58.6426 30.7617-56.4453 30.7617-53.8086C30.7617-51.123 28.6133-48.9258 25.9277-48.9258ZM127.148-48.9258C124.414-48.9258 122.314-51.123 122.314-53.8086C122.314-56.4453 124.512-58.6426 127.148-58.6426C129.834-58.6426 132.031-56.4941 132.031-53.8086C132.031-51.123 129.834-48.9258 127.148-48.9258ZM50 1.85547C46.8262 1.85547 44.9219 0.390625 44.2383-2.58789L43.0176-7.4707L110.059-7.4707L108.887-2.58789C108.154 0.390625 106.299 1.85547 103.076 1.85547Z"/>
  </g>
  <g id="Regular-M" transform="matrix(1 0 0 1 1374.77 1126)">
   <path d="M25.0977-40.5273L25.3418-40.5273L34.8145-2.09961C36.6699 5.56641 40.7227 9.42383 48.7793 9.42383L101.367 9.42383C109.473 9.42383 113.477 5.56641 115.381-2.09961L124.805-40.5273C124.902-40.5273 124.951-40.5273 125.049-40.5273C131.982-40.5273 137.695-46.1914 137.695-53.2227C137.695-60.1562 132.031-65.8203 125.049-65.8203C118.115-65.8203 112.451-60.1074 112.451-53.2227C112.451-51.6602 112.695-50.1465 113.232-48.7793L101.172-41.3574C99.4141-40.2344 98.4375-40.5762 97.4609-41.8945L81.9336-62.8418C85.4004-65.0879 87.6953-69.043 87.6953-73.4863C87.6953-80.3711 82.0312-86.084 75.0977-86.084C68.0664-86.084 62.4512-80.4199 62.4512-73.4863C62.4512-68.9941 64.7949-65.0879 68.3105-62.8418L52.5391-41.6992C51.6602-40.4297 50.7324-40.1855 49.0723-41.2109L36.9141-48.6816C37.4023-50.0977 37.6953-51.6113 37.6953-53.2227C37.6953-60.1074 32.0312-65.8203 25.0977-65.8203C18.1152-65.8203 12.4512-60.1562 12.4512-53.2227C12.4512-46.1914 18.1641-40.5273 25.0977-40.5273ZM75.0977-68.457C72.3633-68.457 70.0684-70.752 70.0684-73.4863C70.0684-76.2695 72.3633-78.4668 75.0977-78.4668C77.7832-78.4668 80.0781-76.1719 80.0781-73.4863C80.0781-70.752 77.8809-68.457 75.0977-68.457ZM46.3867-34.2285C49.5117-32.3242 54.6875-32.2266 57.9102-36.5723L75.0977-59.668L92.334-36.5234C95.459-32.3242 100.586-32.3242 103.418-34.082L117.725-42.8711L117.773-42.8711L111.035-15.332L39.1113-15.332L32.4219-42.7734ZM25.0977-48.1445C22.3633-48.1445 20.0684-50.4395 20.0684-53.2227C20.0684-56.0059 22.3633-58.2031 25.0977-58.2031C27.7832-58.2031 30.0781-55.9082 30.0781-53.2227C30.0781-50.4395 27.8809-48.1445 25.0977-48.1445ZM125.049-48.1445C122.266-48.1445 120.068-50.4395 120.068-53.2227C120.068-55.9082 122.363-58.2031 125.049-58.2031C127.783-58.2031 130.078-56.0059 130.078-53.2227C130.078-50.4395 127.783-48.1445 125.049-48.1445ZM48.7305 2.05078C45.0684 2.05078 42.9688 0.439453 42.1387-3.02734L40.918-7.95898L109.229-7.95898L108.057-3.02734C107.227 0.439453 105.127 2.05078 101.465 2.05078Z"/>
  </g>
  <g id="Light-M" transform="matrix(1 0 0 1 1080.21 1126)">
   <path d="M24.2188-41.3086C24.4629-41.3086 24.7559-41.3086 25.0488-41.3086L34.6191-2.44141C36.4258 4.93164 40.2344 8.44727 47.8027 8.44727L98.0957 8.44727C105.664 8.44727 109.473 4.93164 111.279-2.44141L120.85-41.3086C121.094-41.3086 121.387-41.3086 121.631-41.3086C128.076-41.3086 133.398-46.5332 133.398-53.0273C133.398-59.4727 128.125-64.7461 121.631-64.7461C115.186-64.7461 109.912-59.4727 109.912-53.0273C109.912-51.0742 110.4-49.2188 111.279-47.5586L98.9746-40.0391C96.875-38.7207 95.459-39.0625 94.1406-40.7715L78.5645-61.377C82.1777-63.3789 84.668-67.2363 84.668-71.6797C84.668-78.0762 79.3945-83.3984 72.9492-83.3984C66.4551-83.3984 61.1816-78.125 61.1816-71.6797C61.1816-67.1875 63.7207-63.2812 67.4316-61.3281L51.416-40.2832C50.293-38.8184 48.9746-38.5742 47.168-39.6973L34.5215-47.4609C35.4004-49.1211 35.8887-51.0254 35.8887-53.0273C35.8887-59.4727 30.6641-64.7461 24.2188-64.7461C17.7246-64.7461 12.4512-59.4727 12.4512-53.0273C12.4512-46.5332 17.7246-41.3086 24.2188-41.3086ZM72.9492-65.8203C69.7266-65.8203 67.0898-68.457 67.0898-71.6797C67.0898-74.9023 69.7266-77.5391 72.9492-77.5391C76.123-77.5391 78.8086-74.8535 78.8086-71.6797C78.8086-68.457 76.1719-65.8203 72.9492-65.8203ZM44.7266-34.4727C48.0469-32.4219 52.7344-32.5684 55.7129-36.5234L72.998-59.2285L90.3809-36.377C93.1152-32.7637 97.6562-32.5195 100.342-34.1797L115.137-43.2617C115.234-43.2129 115.283-43.1641 115.381-43.1152L108.203-13.8672L37.6953-13.8672L30.5176-43.1641L30.5664-43.1641ZM24.2188-47.168C20.9961-47.168 18.3105-49.8047 18.3105-53.0273C18.3105-56.2988 20.9961-58.8867 24.2188-58.8867C27.3926-58.8867 30.0293-56.2012 30.0293-53.0273C30.0293-49.8047 27.4414-47.168 24.2188-47.168ZM121.631-47.168C118.408-47.168 115.82-49.8047 115.82-53.0273C115.82-56.2012 118.457-58.8867 121.631-58.8867C124.854-58.8867 127.49-56.2988 127.49-53.0273C127.49-49.8047 124.854-47.168 121.631-47.168ZM47.7051 2.73438C43.6523 2.73438 41.2598 0.830078 40.332-2.97852L39.0625-8.1543L106.836-8.1543L105.566-2.97852C104.639 0.830078 102.246 2.73438 98.1934 2.73438Z"/>
  </g>
  <g id="Thin-M" transform="matrix(1 0 0 1 786.354 1126)">
   <path d="M22.998-42.2852C23.5352-42.2852 24.0723-42.334 24.6094-42.3828L34.375-2.92969C36.084 4.15039 39.5508 7.12891 46.4844 7.12891L93.75 7.12891C100.684 7.12891 104.15 4.15039 105.859-2.92969L115.625-42.3828C116.113-42.334 116.65-42.2852 117.139-42.2852C122.949-42.2852 127.686-47.0215 127.686-52.832C127.686-58.5938 122.949-63.3301 117.139-63.3301C111.377-63.3301 106.641-58.5938 106.641-52.832C106.641-50.293 107.52-47.998 108.984-46.1914L96.0449-38.2812C93.5059-36.7188 91.4551-37.0605 89.7461-39.3066L74.0234-59.5215C77.8809-61.0352 80.6641-64.8438 80.6641-69.2871C80.6641-75.0977 75.9277-79.834 70.1172-79.834C64.3066-79.834 59.5703-75.0977 59.5703-69.2871C59.5703-64.7949 62.4023-60.9375 66.4062-59.4238L49.9023-38.4766C48.4375-36.6211 46.6309-36.4258 44.6289-37.6953L31.0059-46.0449C32.5684-47.8516 33.4961-50.2441 33.4961-52.832C33.4961-58.5938 28.7598-63.3301 22.998-63.3301C17.1875-63.3301 12.4512-58.5938 12.4512-52.832C12.4512-47.0215 17.1875-42.2852 22.998-42.2852ZM70.1172-62.3047C66.3086-62.3047 63.1836-65.4785 63.1836-69.2871C63.1836-73.1445 66.3086-76.2207 70.1172-76.2207C73.9258-76.2207 77.0996-73.0957 77.0996-69.2871C77.0996-65.4785 73.9746-62.3047 70.1172-62.3047ZM22.998-45.8496C19.1895-45.8496 16.0156-48.9746 16.0156-52.832C16.0156-56.6406 19.1895-59.7656 22.998-59.7656C26.8066-59.7656 29.9316-56.6406 29.9316-52.832C29.9316-48.9746 26.8066-45.8496 22.998-45.8496ZM117.139-45.8496C113.33-45.8496 110.205-48.9746 110.205-52.832C110.205-56.6406 113.33-59.7656 117.139-59.7656C120.996-59.7656 124.121-56.6406 124.121-52.832C124.121-48.9746 120.996-45.8496 117.139-45.8496ZM42.5781-34.8145C46.1914-32.5684 50.1953-33.0566 52.832-36.4746L70.2148-58.6426L87.7441-36.2305C89.9414-33.3008 93.75-32.7148 96.2402-34.2773L111.768-43.75C111.914-43.7012 112.061-43.6035 112.207-43.5059L104.492-11.8652L35.7422-11.8652L28.0273-43.5547L28.1738-43.6523ZM46.4355 3.61328C41.8457 3.61328 39.0137 1.36719 37.9395-2.92969L36.6211-8.34961L103.613-8.34961L102.295-2.92969C101.221 1.36719 98.3887 3.61328 93.8477 3.61328Z"/>
  </g>
  <g id="Ultralight-M" transform="matrix(1 0 0 1 491.108 1126)">
   <path d="M22.3633-42.7734C23.0469-42.7734 23.7305-42.8711 24.4141-42.9688L34.2773-3.17383C35.9375 3.71094 39.209 6.44531 45.8008 6.44531L91.5527 6.44531C98.1445 6.44531 101.416 3.71094 103.076-3.17383L112.939-42.9688C113.574-42.8223 114.209-42.7734 114.844-42.7734C120.312-42.7734 124.756-47.2656 124.756-52.6855C124.756-58.1543 120.312-62.6465 114.844-62.6465C109.375-62.6465 104.932-58.1543 104.932-52.6855C104.932-49.9023 106.104-47.4121 107.959-45.6055L94.5312-37.3535C91.7969-35.6934 89.4531-36.0352 87.5-38.5742L71.6309-58.5938C75.6348-59.8633 78.6133-63.623 78.6133-68.0664C78.6133-73.5352 74.1211-77.9785 68.6523-77.9785C63.2324-77.9785 58.7402-73.5352 58.7402-68.0664C58.7402-63.5742 61.8164-59.7168 65.918-58.5449L49.1699-37.5488C47.5098-35.498 45.459-35.3516 43.3105-36.6699L29.0527-45.4102C31.0547-47.2168 32.2754-49.8047 32.2754-52.6855C32.2754-58.1543 27.832-62.6465 22.3633-62.6465C16.8945-62.6465 12.4512-58.1543 12.4512-52.6855C12.4512-47.2656 16.8945-42.7734 22.3633-42.7734ZM68.6523-60.5469C64.5508-60.5469 61.1328-63.916 61.1328-68.0664C61.1328-72.2168 64.5508-75.5859 68.6523-75.5859C72.8027-75.5859 76.2207-72.2168 76.2207-68.0664C76.2207-63.916 72.8027-60.5469 68.6523-60.5469ZM22.3633-45.166C18.2129-45.166 14.8438-48.584 14.8438-52.6855C14.8438-56.8359 18.2129-60.2051 22.3633-60.2051C26.5137-60.2051 29.8828-56.8359 29.8828-52.6855C29.8828-48.584 26.5137-45.166 22.3633-45.166ZM114.844-45.166C110.693-45.166 107.324-48.584 107.324-52.6855C107.324-56.8359 110.693-60.2051 114.844-60.2051C118.994-60.2051 122.363-56.8359 122.363-52.6855C122.363-48.584 118.994-45.166 114.844-45.166ZM68.6523-58.1543L68.9453-58.1543L86.377-36.1328C88.3789-33.5938 91.748-32.8613 94.1895-34.3262L110.01-44.043C110.205-43.9453 110.4-43.8477 110.596-43.75L102.588-10.8887L34.7656-10.8887L26.7578-43.7988C26.8066-43.8477 26.8555-43.8477 26.9043-43.8965L41.4551-34.9609C45.2148-32.666 48.877-33.3008 51.3672-36.4258ZM45.752 4.05273C40.918 4.05273 37.8418 1.66016 36.7188-2.92969L35.3516-8.44727L102.002-8.44727L100.635-2.92969C99.5117 1.66016 96.4355 4.05273 91.6016 4.05273Z"/>
  </g>
  <g id="Black-S" transform="matrix(1 0 0 1 2868.34 696)">
   <path d="M100.732-5.9082L108.74-38.5254C115.283-39.4043 120.361-45.0195 120.361-51.8555C120.361-59.2285 114.355-65.2344 106.982-65.2344C99.5605-65.2344 93.5547-59.2285 93.5547-51.8555C93.5547-50.9766 93.6523-50.1465 93.7988-49.3164L86.1328-44.5312C85.6934-44.2383 85.3027-44.2871 85.0098-44.6777L74.3652-59.1309C76.9043-61.5723 78.4668-64.9902 78.4668-68.7988C78.4668-76.1719 72.4609-82.1777 65.0879-82.1777C57.666-82.1777 51.6602-76.1719 51.6602-68.7988C51.6602-64.9902 53.2227-61.5723 55.7617-59.1309L45.5078-45.166C45.2148-44.7754 44.8242-44.7266 44.3848-45.0195L36.4258-50C36.5234-50.5859 36.5723-51.2207 36.5723-51.8555C36.5723-59.2285 30.5664-65.2344 23.1934-65.2344C15.7715-65.2344 9.76562-59.2285 9.76562-51.8555C9.76562-45.0195 14.8438-39.4043 21.4355-38.5254L29.4434-5.9082C31.3477 1.9043 36.084 5.76172 43.75 5.76172L86.4258 5.76172C94.0918 5.76172 98.8281 1.9043 100.732-5.9082ZM65.0879-65.4785C63.2324-65.4785 61.7676-66.9434 61.7676-68.7988C61.7676-70.6055 63.2324-72.0703 65.0879-72.0703C66.8945-72.0703 68.3594-70.6055 68.3594-68.7988C68.3594-66.9434 66.8945-65.4785 65.0879-65.4785ZM23.1934-48.5352C21.3379-48.5352 19.873-50 19.873-51.8555C19.873-53.6621 21.3379-55.127 23.1934-55.127C25-55.127 26.4648-53.6621 26.4648-51.8555C26.4648-50 25-48.5352 23.1934-48.5352ZM106.982-48.5352C105.127-48.5352 103.662-50 103.662-51.8555C103.662-53.6621 105.127-55.127 106.982-55.127C108.789-55.127 110.254-53.6621 110.254-51.8555C110.254-50 108.789-48.5352 106.982-48.5352ZM39.9902-33.5449C45.6543-30.3223 51.1719-31.4941 54.4922-36.0352L65.0879-50.3906L76.0254-35.5469C79.3457-31.0059 84.8633-29.834 90.5273-33.0566L94.9219-35.5469L92.2363-24.5117L37.9395-24.5117L35.0586-36.377ZM43.7012-6.93359C42.8223-6.93359 42.0898-7.4707 41.8945-8.25195L41.0156-11.8164L89.1602-11.8164L88.2812-8.25195C88.0859-7.4707 87.3535-6.93359 86.4746-6.93359Z"/>
  </g>
  <g id="Heavy-S" transform="matrix(1 0 0 1 2572.85 696)">
   <path d="M98.7793-6.64062L106.592-38.623C112.939-39.3066 117.92-44.7266 117.92-51.2695C117.92-58.252 112.207-63.916 105.225-63.916C98.2422-63.916 92.5293-58.252 92.5293-51.2695C92.5293-50.3906 92.627-49.4629 92.8223-48.6328L84.7656-43.6035C84.1309-43.2129 83.7402-43.3105 83.3496-43.7988L72.3633-58.7402C74.9023-61.084 76.5137-64.4531 76.5137-68.1641C76.5137-75.0977 70.8496-80.8105 63.8672-80.8105C56.8359-80.8105 51.1719-75.1465 51.1719-68.1641C51.1719-64.4043 52.7832-61.084 55.3223-58.7402L44.6289-44.1895C44.2383-43.7012 43.8477-43.6035 43.2129-43.9941L34.9609-49.1211C35.0586-49.8047 35.1074-50.5371 35.1074-51.2695C35.1074-58.252 29.4434-63.916 22.4609-63.916C15.4297-63.916 9.76562-58.252 9.76562-51.2695C9.76562-44.7266 14.7461-39.3066 21.0938-38.623L28.9551-6.64062C30.7617 0.732422 35.1562 4.44336 42.5781 4.44336L85.1562 4.44336C92.5781 4.44336 96.9727 0.732422 98.7793-6.64062ZM63.8672-64.7949C61.9629-64.7949 60.498-66.2598 60.498-68.1641C60.498-70.0195 61.9629-71.4844 63.8672-71.4844C65.6738-71.4844 67.1875-69.9707 67.1875-68.1641C67.1875-66.2598 65.7227-64.7949 63.8672-64.7949ZM22.4609-47.9004C20.6055-47.9004 19.0918-49.4141 19.0918-51.2695C19.0918-53.125 20.6055-54.5898 22.4609-54.5898C24.3164-54.5898 25.7812-53.0762 25.7812-51.2695C25.7812-49.4141 24.3164-47.9004 22.4609-47.9004ZM105.225-47.9004C103.369-47.9004 101.904-49.4141 101.904-51.2695C101.904-53.0762 103.369-54.5898 105.225-54.5898C107.08-54.5898 108.594-53.125 108.594-51.2695C108.594-49.4141 107.08-47.9004 105.225-47.9004ZM39.3066-33.7402C44.1895-30.9082 49.4141-31.7871 52.5879-36.084L63.8672-51.3672L75.3906-35.7422C78.5645-31.3965 83.7891-30.5664 88.623-33.3496L94.5801-36.7676L91.3086-23.5352L36.377-23.5352L33.0078-37.3535ZM42.5293-6.78711C41.2109-6.78711 40.2832-7.4707 39.9902-8.64258L39.1113-12.3047L88.5742-12.3047L87.6953-8.64258C87.4023-7.4707 86.5234-6.78711 85.2051-6.78711Z"/>
  </g>
  <g id="Bold-S" transform="matrix(1 0 0 1 2277.5 696)">
   <path d="M96.582-7.51953L104.248-38.7695C110.303-39.2578 115.186-44.3359 115.186-50.6348C115.186-57.1289 109.863-62.4512 103.32-62.4512C96.7285-62.4512 91.4551-57.1289 91.4551-50.6348C91.4551-49.6582 91.5527-48.7305 91.748-47.8516L83.252-42.5781C82.4219-42.0898 81.9336-42.2363 81.4941-42.8223L70.1172-58.3496C72.7051-60.5469 74.3164-63.7695 74.3164-67.4316C74.3164-73.9258 68.9941-79.2969 62.5-79.2969C55.9082-79.2969 50.5859-73.9746 50.5859-67.4316C50.5859-63.7695 52.2461-60.498 54.834-58.3496L43.6035-43.0664C43.1641-42.4316 42.7246-42.2852 41.8945-42.8223L33.252-48.1934C33.3984-48.9746 33.4961-49.8047 33.4961-50.6348C33.4961-57.1289 28.1738-62.4512 21.6797-62.4512C15.0879-62.4512 9.76562-57.1289 9.76562-50.6348C9.76562-44.3359 14.5996-39.2578 20.752-38.7695L28.418-7.51953C30.127-0.537109 34.1309 2.97852 41.2109 2.97852L83.7402 2.97852C90.8691 2.97852 94.873-0.537109 96.582-7.51953ZM62.5-64.0137C60.5957-64.0137 59.0332-65.5273 59.0332-67.4316C59.0332-69.3359 60.5957-70.8008 62.5-70.8008C64.3066-70.8008 65.8691-69.2871 65.8691-67.4316C65.8691-65.5273 64.3555-64.0137 62.5-64.0137ZM21.6797-47.168C19.7754-47.168 18.2129-48.7305 18.2129-50.6348C18.2129-52.4902 19.7754-54.0039 21.6797-54.0039C23.4863-54.0039 25.0488-52.4902 25.0488-50.6348C25.0488-48.7305 23.5352-47.168 21.6797-47.168ZM103.32-47.168C101.367-47.168 99.9023-48.7305 99.9023-50.6348C99.9023-52.4902 101.416-54.0039 103.32-54.0039C105.176-54.0039 106.689-52.4902 106.689-50.6348C106.689-48.7305 105.176-47.168 103.32-47.168ZM38.5742-33.9355C42.5781-31.5918 47.4609-32.1289 50.4883-36.1816L62.5-52.4414L74.6582-35.9375C77.6367-31.8848 82.5684-31.3477 86.5234-33.6914L94.1406-38.1836L90.332-22.4609L34.668-22.4609L30.7129-38.5742ZM41.1621-6.64062C39.4043-6.64062 38.2812-7.4707 37.8906-9.13086L37.0117-12.793L87.9395-12.793L87.0605-9.13086C86.6699-7.4707 85.5469-6.64062 83.7891-6.64062Z"/>
  </g>
  <g id="Semibold-S" transform="matrix(1 0 0 1 1981.74 696)">
   <path d="M95.0195-8.05664L102.588-38.8672C108.496-39.1602 113.281-44.0918 113.281-50.1953C113.281-56.3965 108.203-61.4746 101.953-61.4746C95.7031-61.4746 90.6738-56.3477 90.6738-50.1953C90.6738-49.2188 90.7715-48.2422 91.0156-47.3633L82.1777-41.8945C81.25-41.2598 80.7129-41.4551 80.2246-42.1387L68.5547-58.0566C71.1426-60.1562 72.8027-63.3301 72.8027-66.9434C72.8027-73.1445 67.7734-78.2227 61.5234-78.2227C55.2734-78.2227 50.1953-73.1445 50.1953-66.9434C50.1953-63.3301 51.9043-60.1074 54.4922-58.0566L42.9199-42.2852C42.4316-41.6016 41.9434-41.4062 40.9668-42.041L32.0801-47.5586C32.2754-48.3887 32.373-49.2676 32.373-50.1953C32.373-56.3477 27.3438-61.4746 21.0938-61.4746C14.8438-61.4746 9.76562-56.3965 9.76562-50.1953C9.76562-44.0918 14.5508-39.1602 20.459-38.8672L28.0273-8.05664C29.6387-1.41602 33.3984 2.00195 40.332 2.00195L82.7637 2.00195C89.6484 2.00195 93.4082-1.41602 95.0195-8.05664ZM61.5234-63.4766C59.6191-63.4766 58.0566-65.0391 58.0566-66.9434C58.0566-68.8477 59.6191-70.3613 61.5234-70.3613C63.3789-70.3613 64.9414-68.7988 64.9414-66.9434C64.9414-65.0391 63.4766-63.4766 61.5234-63.4766ZM21.0938-46.6797C19.1895-46.6797 17.627-48.291 17.627-50.1953C17.627-52.0996 19.1895-53.6133 21.0938-53.6133C22.9492-53.6133 24.5117-52.0508 24.5117-50.1953C24.5117-48.291 22.998-46.6797 21.0938-46.6797ZM101.953-46.6797C100.049-46.6797 98.5352-48.291 98.5352-50.1953C98.5352-52.0508 100.098-53.6133 101.953-53.6133C103.857-53.6133 105.42-52.0996 105.42-50.1953C105.42-48.291 103.857-46.6797 101.953-46.6797ZM38.0371-34.082C41.4551-32.0801 46.1426-32.3242 49.0234-36.2305L61.5234-53.2227L74.1699-36.084C77.0508-32.1777 81.7383-31.9336 85.0586-33.8867L93.8965-39.1602L89.5996-21.6797L33.4473-21.6797L29.1504-39.4043ZM40.2832-6.54297C38.1348-6.54297 36.9141-7.4707 36.4258-9.42383L35.5469-13.1836L87.5488-13.1836L86.6211-9.42383C86.1328-7.4707 84.9121-6.54297 82.8125-6.54297Z"/>
  </g>
  <g id="Medium-S" transform="matrix(1 0 0 1 1685.74 696)">
   <path d="M93.8965-8.49609L101.318-38.916C107.129-39.1602 111.865-43.9453 111.865-49.8535C111.865-55.8105 106.982-60.6934 100.928-60.6934C94.9707-60.6934 90.0879-55.7617 90.0879-49.8535C90.0879-48.8281 90.1855-47.8516 90.4785-46.9727L81.3965-41.3574C80.3223-40.6738 79.7852-40.8691 79.248-41.6504L67.3828-57.8613C69.9707-59.8633 71.6797-62.9883 71.6797-66.5527C71.6797-72.5098 66.7969-77.4414 60.791-77.4414C54.7852-77.4414 49.9023-72.5586 49.9023-66.5527C49.9023-62.9883 51.6113-59.8633 54.248-57.8613L42.3828-41.6992C41.8945-40.9668 41.3574-40.7715 40.2832-41.4062L31.2012-47.0703C31.3965-47.9492 31.543-48.877 31.543-49.8535C31.543-55.7617 26.6602-60.6934 20.6543-60.6934C14.6484-60.6934 9.76562-55.8105 9.76562-49.8535C9.76562-43.9453 14.4531-39.1602 20.2637-38.916L27.7344-8.49609C29.2969-2.09961 32.8613 1.2207 39.5996 1.2207L81.9824 1.2207C88.7695 1.2207 92.334-2.09961 93.8965-8.49609ZM60.791-63.0371C58.8867-63.0371 57.3242-64.6484 57.3242-66.5527C57.3242-68.5059 58.8867-70.0195 60.791-70.0195C62.6953-70.0195 64.2578-68.457 64.2578-66.5527C64.2578-64.6484 62.7441-63.0371 60.791-63.0371ZM37.6465-34.1797C40.5762-32.4219 45.1172-32.5195 47.9004-36.2793L60.791-53.8086L73.8281-36.1816C76.5625-32.4219 81.1035-32.3242 83.9844-34.082L93.6523-39.9414L89.0625-21.1426L32.5684-21.1426L27.9297-40.0879ZM20.6543-46.3379C18.75-46.3379 17.1875-47.9004 17.1875-49.8535C17.1875-51.7578 18.75-53.2715 20.6543-53.2715C22.5586-53.2715 24.1211-51.709 24.1211-49.8535C24.1211-47.9004 22.6074-46.3379 20.6543-46.3379ZM100.928-46.3379C98.9746-46.3379 97.4609-47.9004 97.4609-49.8535C97.4609-51.709 99.0723-53.2715 100.928-53.2715C102.832-53.2715 104.443-51.7578 104.443-49.8535C104.443-47.9004 102.832-46.3379 100.928-46.3379ZM39.5508-6.44531C37.207-6.44531 35.8887-7.51953 35.3516-9.66797L34.4238-13.4277L87.207-13.4277L86.2793-9.66797C85.7422-7.51953 84.4238-6.44531 82.0312-6.44531Z"/>
  </g>
  <g id="Regular-S" transform="matrix(1 0 0 1 1389.98 696)">
   <path d="M92.3828-9.08203L99.707-39.0137C105.322-39.0137 109.961-43.6523 109.961-49.3652C109.961-55.0781 105.371-59.7168 99.6094-59.7168C93.9453-59.7168 89.3066-55.0293 89.3066-49.3652C89.3066-48.3398 89.4531-47.3633 89.7461-46.4355L80.3711-40.6738C79.1504-39.8926 78.5645-40.1367 77.9785-40.9668L65.8203-57.6172C68.457-59.4727 70.166-62.5488 70.166-66.0645C70.166-71.7285 65.5762-76.3672 59.8633-76.3672C54.1504-76.3672 49.5117-71.7773 49.5117-66.0645C49.5117-62.5488 51.2695-59.4727 53.9551-57.6172L41.6992-40.9668C41.1621-40.1367 40.5762-39.8926 39.4043-40.625L30.0293-46.4355C30.2734-47.3633 30.4199-48.3398 30.4199-49.3652C30.4199-55.0293 25.8301-59.7168 20.1172-59.7168C14.4043-59.7168 9.76562-55.0781 9.76562-49.3652C9.76562-43.7012 14.4043-39.0625 20.0195-39.0137L27.3438-9.08203C28.8574-2.97852 32.1289 0.244141 38.7207 0.244141L81.0547 0.244141C87.5977 0.244141 90.8691-2.97852 92.3828-9.08203ZM59.8633-62.5488C57.959-62.5488 56.3477-64.1602 56.3477-66.0645C56.3477-68.0664 57.959-69.5801 59.8633-69.5801C61.7676-69.5801 63.3789-67.9688 63.3789-66.0645C63.3789-64.1602 61.8652-62.5488 59.8633-62.5488ZM37.1582-34.3262C39.4531-32.8613 43.7988-32.7148 46.4355-36.3281L59.8633-54.541L73.3398-36.3281C75.9277-32.7148 80.2734-32.9102 82.5195-34.2773L93.4082-40.9668L88.3789-20.3613L31.3477-20.3613L26.3184-40.9668ZM20.1172-45.8496C18.2129-45.8496 16.5527-47.4609 16.5527-49.3652C16.5527-51.3672 18.2129-52.8809 20.1172-52.8809C22.0215-52.8809 23.6328-51.2695 23.6328-49.3652C23.6328-47.4609 22.1191-45.8496 20.1172-45.8496ZM99.6094-45.8496C97.6562-45.8496 96.1426-47.4609 96.1426-49.3652C96.1426-51.2695 97.7539-52.8809 99.6094-52.8809C101.562-52.8809 103.174-51.3672 103.174-49.3652C103.174-47.4609 101.562-45.8496 99.6094-45.8496ZM38.6719-6.34766C35.9863-6.34766 34.5215-7.51953 33.8867-10.0098L32.959-13.8184L86.7676-13.8184L85.8398-10.0098C85.2539-7.51953 83.7891-6.34766 81.1035-6.34766Z"/>
  </g>
  <g id="Light-S" transform="matrix(1 0 0 1 1095.17 696)">
   <path d="M19.3359-39.6973C19.4824-39.6973 19.6289-39.6973 19.7754-39.6973L27.1973-9.42383C28.6621-3.51562 31.6895-0.634766 37.8418-0.634766L78.125-0.634766C84.2773-0.634766 87.3047-3.51562 88.7695-9.42383L96.1914-39.6973C96.3379-39.6973 96.4844-39.6973 96.6309-39.6973C101.855-39.6973 106.152-43.9453 106.152-49.2188C106.152-54.4922 101.904-58.7402 96.6309-58.7402C91.3574-58.7402 87.1094-54.4434 87.1094-49.2188C87.1094-47.8516 87.4023-46.5332 87.9395-45.3613L78.418-39.502C76.9043-38.5742 75.9277-38.8184 75.0488-39.9902L62.8418-56.25C65.625-57.9102 67.4805-60.9863 67.4805-64.502C67.4805-69.6777 63.2324-73.9746 57.959-73.9746C52.6855-73.9746 48.4375-69.7266 48.4375-64.502C48.4375-60.9863 50.3418-57.9102 53.1738-56.25L40.7227-39.7461C39.9414-38.6719 39.0625-38.4766 37.6953-39.3066L27.9785-45.2637C28.5156-46.4844 28.8574-47.8516 28.8574-49.2188C28.8574-54.4434 24.5605-58.7402 19.3359-58.7402C14.0625-58.7402 9.76562-54.4922 9.76562-49.2188C9.76562-43.9453 14.0625-39.6973 19.3359-39.6973ZM57.959-60.2051C55.6641-60.2051 53.7109-62.1582 53.7109-64.502C53.7109-66.8457 55.6641-68.75 57.959-68.75C60.3027-68.75 62.207-66.7969 62.207-64.502C62.207-62.1582 60.3516-60.2051 57.959-60.2051ZM35.6934-34.5215C38.2324-32.959 42.0898-33.0078 44.4824-36.2793L58.0078-54.1992L71.582-36.1816C73.877-33.1055 77.6367-33.0566 79.7852-34.375L91.2109-41.3574C91.2598-41.3574 91.3086-41.3086 91.3086-41.3086L85.8887-19.043L30.0781-19.043L24.6582-41.3086ZM19.3359-44.9707C16.9922-44.9707 15.0391-46.9238 15.0391-49.2188C15.0391-51.6113 16.9922-53.4668 19.3359-53.4668C21.6309-53.4668 23.584-51.5625 23.584-49.2188C23.584-46.9238 21.6797-44.9707 19.3359-44.9707ZM96.6309-44.9707C94.2383-44.9707 92.3828-46.9238 92.3828-49.2188C92.3828-51.5625 94.2871-53.4668 96.6309-53.4668C98.9746-53.4668 100.879-51.6113 100.879-49.2188C100.879-46.9238 98.9746-44.9707 96.6309-44.9707ZM37.793-5.76172C34.7656-5.76172 33.0078-7.12891 32.3242-9.96094L31.3477-13.9648L84.6191-13.9648L83.6426-9.96094C82.959-7.12891 81.2012-5.76172 78.1738-5.76172Z"/>
  </g>
  <g id="Thin-S" transform="matrix(1 0 0 1 800.978 696)">
   <path d="M18.2617-40.5762C18.6523-40.5762 18.9941-40.5762 19.3848-40.625L27.002-9.81445C28.3691-4.24805 31.1523-1.80664 36.6699-1.80664L74.3164-1.80664C79.834-1.80664 82.6172-4.24805 83.9844-9.81445L91.5527-40.625C91.9434-40.5762 92.2852-40.5762 92.627-40.5762C97.3145-40.5762 101.123-44.3848 101.123-49.0723C101.123-53.7109 97.3145-57.5195 92.627-57.5195C87.9883-57.5195 84.1797-53.7109 84.1797-49.0723C84.1797-47.168 84.7656-45.459 85.791-44.043L75.8301-37.9395C73.9258-36.7676 72.4121-37.0605 71.1426-38.7207L58.8379-54.5898C61.8652-55.9082 63.9648-58.8867 63.9648-62.3535C63.9648-67.041 60.1562-70.8496 55.4688-70.8496C50.8301-70.8496 47.0215-67.041 47.0215-62.3535C47.0215-58.8379 49.1699-55.8105 52.1973-54.541L39.4043-38.1348C38.3301-36.7188 37.0117-36.5723 35.4492-37.5488L25-43.9453C26.0742-45.3613 26.709-47.1191 26.709-49.0723C26.709-53.7109 22.9004-57.5195 18.2617-57.5195C13.5742-57.5195 9.76562-53.7109 9.76562-49.0723C9.76562-44.3848 13.5742-40.5762 18.2617-40.5762ZM55.4688-57.1289C52.5879-57.1289 50.2441-59.4727 50.2441-62.3535C50.2441-65.2832 52.5879-67.627 55.4688-67.627C58.3496-67.627 60.7422-65.2344 60.7422-62.3535C60.7422-59.4727 58.3984-57.1289 55.4688-57.1289ZM18.2617-43.7988C15.3809-43.7988 12.9883-46.1914 12.9883-49.0723C12.9883-51.9531 15.3809-54.2969 18.2617-54.2969C21.1426-54.2969 23.4863-51.9043 23.4863-49.0723C23.4863-46.1914 21.1426-43.7988 18.2617-43.7988ZM92.627-43.7988C89.7461-43.7988 87.4023-46.1914 87.4023-49.0723C87.4023-51.9043 89.7949-54.2969 92.627-54.2969C95.5078-54.2969 97.9004-51.9531 97.9004-49.0723C97.9004-46.1914 95.5078-43.7988 92.627-43.7988ZM33.7891-34.8145C36.5723-33.1055 39.7949-33.4473 41.9434-36.2305L55.5664-53.7109L69.2383-36.0352C71.0938-33.5938 74.2188-33.2031 76.2207-34.4727L88.2324-41.8457C88.3301-41.748 88.4277-41.6992 88.5254-41.6504L82.5684-17.334L28.3691-17.334L22.4609-41.6992C22.4609-41.6992 22.5098-41.6992 22.5098-41.748ZM36.6211-4.98047C33.1543-4.98047 31.0059-6.64062 30.1758-9.96094L29.1504-14.1113L81.7871-14.1113L80.7617-9.96094C79.9805-6.64062 77.832-4.98047 74.3652-4.98047Z"/>
  </g>
  <g id="Ultralight-S" transform="matrix(1 0 0 1 505.561 696)">
   <path d="M17.7246-41.0156C18.2129-41.0156 18.7012-41.0645 19.1895-41.1621L26.9043-10.0586C28.2227-4.58984 30.8105-2.39258 36.084-2.39258L72.3145-2.39258C77.5879-2.39258 80.1758-4.58984 81.543-10.0586L89.209-41.1133C89.6484-41.0645 90.1367-41.0156 90.625-41.0156C94.9707-41.0156 98.5352-44.5801 98.5352-48.9258C98.5352-53.3203 94.9707-56.8848 90.625-56.8848C86.2305-56.8848 82.666-53.3203 82.666-48.9258C82.666-46.8262 83.4961-44.9219 84.8633-43.5059L74.4629-37.1582C72.3633-35.8398 70.6055-36.1328 69.1406-38.0371L56.7871-53.7598C59.8633-54.834 62.1582-57.8125 62.1582-61.2793C62.1582-65.625 58.5449-69.2383 54.1992-69.2383C49.8535-69.2383 46.2402-65.625 46.2402-61.2793C46.2402-57.7637 48.584-54.7363 51.7578-53.7109L38.7207-37.3047C37.5-35.7422 35.9375-35.6445 34.2773-36.6211L23.3398-43.3594C24.7559-44.7754 25.6348-46.7773 25.6348-48.9258C25.6348-53.3203 22.0703-56.8848 17.7246-56.8848C13.3301-56.8848 9.76562-53.3203 9.76562-48.9258C9.76562-44.5801 13.3301-41.0156 17.7246-41.0156ZM54.1992-55.5176C51.0254-55.5176 48.4375-58.1055 48.4375-61.2793C48.4375-64.4531 51.0254-67.041 54.1992-67.041C57.373-67.041 59.9609-64.4531 59.9609-61.2793C59.9609-58.1055 57.373-55.5176 54.1992-55.5176ZM17.7246-43.2129C14.5508-43.2129 11.9629-45.8008 11.9629-48.9258C11.9629-52.0996 14.5508-54.6875 17.7246-54.6875C20.8496-54.6875 23.4375-52.0996 23.4375-48.9258C23.4375-45.8008 20.8496-43.2129 17.7246-43.2129ZM90.625-43.2129C87.4512-43.2129 84.8633-45.8008 84.8633-48.9258C84.8633-52.0996 87.4512-54.6875 90.625-54.6875C93.75-54.6875 96.3379-52.0996 96.3379-48.9258C96.3379-45.8008 93.75-43.2129 90.625-43.2129ZM32.8125-34.9609C35.6934-33.2031 38.623-33.6426 40.625-36.1816L54.248-53.3691L54.3457-53.3691L68.0664-35.9375C69.6777-33.8867 72.4121-33.3496 74.3652-34.5215L86.6699-42.041C86.8164-41.9922 86.9629-41.8945 87.1094-41.8457L80.8594-16.4062L27.5391-16.4062L21.2891-41.8945L21.4355-41.9434ZM36.0352-4.58984C32.3242-4.58984 29.9805-6.39648 29.1016-9.91211L28.0762-14.2578L80.3711-14.2578L79.2969-9.91211C78.418-6.39648 76.0742-4.58984 72.3633-4.58984Z"/>
  </g>
 </g>
</svg>
